<?xml version="1.0" encoding="utf-8"?>
<!-- Generator: Adobe Illustrator 22.1.0, SVG Export Plug-In . SVG Version: 6.00 Build 0)  -->
<svg version="1.1" id="Layer_1" xmlns="http://www.w3.org/2000/svg" xmlns:xlink="http://www.w3.org/1999/xlink" x="0px" y="0px"
	 viewBox="0 0 400 150" style="enable-background:new 0 0 400 150;" xml:space="preserve">
<style type="text/css">
	.st0{fill:#F23849;}
	.st1{fill:#FFFFFF;}
	.st2{fill:#333333;}
</style>
<g>
	<path class="st0" d="M63.8,109.1h-2.3C44.2,109.1,30,94.9,30,77.5v-2.3c0-17.4,14.2-31.6,31.6-31.6h2.3c17.4,0,31.6,14.2,31.6,31.6
		v2.3C95.4,94.9,81.2,109.1,63.8,109.1z"/>
	<g transform="translate(28 -87.33333333333334) scale(1.5157895954163878)">
		<path class="st1" d="M40.5,100.8c-1-2.3-2.3-4.3-4.1-6c-1.8-1.8-3.7-3.1-6-4.1c-2.4-1-4.8-1.5-7.4-1.5s-5,0.5-7.4,1.5
			c-2.3,1-4.3,2.3-6,4.1c-1.8,1.8-3.1,3.7-4.1,6c-1,2.4-1.5,4.8-1.5,7.4c0,6.3,3.1,12.2,8.4,15.8c0.2,0.1,0.4,0.1,0.6-0.1
			c0.1-0.2,0.1-0.4-0.1-0.6c-5.1-3.3-8.1-9-8.1-15.1c0-4.9,1.9-9.4,5.3-12.8S18.1,90,23,90s9.4,1.9,12.8,5.3c3.4,3.4,5.3,8,5.3,12.8
			s-1.9,9.4-5.3,12.8c-3.4,3.4-8,5.3-12.8,5.3c-1.6,0-3.1-0.2-4.6-0.6c-0.2,0-0.4,0.1-0.5,0.3c0,0.2,0.1,0.4,0.3,0.5
			c1.6,0.4,3.2,0.6,4.8,0.6c2.5,0,5-0.5,7.4-1.5c2.3-1,4.3-2.3,6-4.1c1.8-1.8,3.1-3.7,4.1-6c1-2.4,1.5-4.8,1.5-7.4
			C41.9,105.6,41.4,103.1,40.5,100.8L40.5,100.8z"/>
		<path class="st1" d="M10.9,101.5c-0.2-0.1-0.4,0-0.5,0.2c-1,2-1.6,4.2-1.6,6.5c0,3.8,1.5,7.4,4.1,10c2.7,2.7,6.3,4.1,10,4.1
			s7.4-1.5,10-4.1c2.7-2.7,4.1-6.3,4.1-10s-1.5-7.4-4.1-10c-2.7-2.7-6.3-4.1-10-4.1c-3,0-5.8,0.9-8.2,2.6c-0.2,0.1-0.2,0.4-0.1,0.6
			c0.1,0.2,0.4,0.2,0.6,0.1c2.3-1.6,5-2.5,7.8-2.5c3.6,0,6.9,1.4,9.5,3.9c2.5,2.5,3.9,5.9,3.9,9.5s-1.4,6.9-3.9,9.5
			c-2.5,2.5-5.9,3.9-9.5,3.9s-6.9-1.4-9.5-3.9c-2.5-2.5-3.9-5.9-3.9-9.4c0-2.2,0.5-4.2,1.5-6.1C11.2,101.8,11.1,101.6,10.9,101.5z"
			/>
		<path class="st1" d="M28.1,100.6c0.1-0.2,0-0.4-0.1-0.6c-1.5-0.9-3.2-1.4-4.9-1.4c-5.2,0-9.5,4.3-9.5,9.5s4.3,9.5,9.5,9.5
			s9.5-4.3,9.5-9.5c0-0.8-0.1-1.7-0.3-2.5c0-0.2-0.3-0.3-0.5-0.3c-0.2,0-0.3,0.3-0.3,0.5c0.2,0.7,0.3,1.5,0.3,2.3
			c0,4.8-3.9,8.7-8.7,8.7s-8.7-3.9-8.7-8.7s3.9-8.7,8.7-8.7c1.6,0,3.1,0.4,4.5,1.3C27.7,100.9,27.9,100.8,28.1,100.6z"/>
		<circle class="st1" cx="23" cy="108.2" r="3.9"/>
		<circle class="st1" cx="30.5" cy="103" r="1.2"/>
		<circle class="st1" cx="12.4" cy="99.1" r="1.2"/>
		<circle class="st1" cx="15.5" cy="125.1" r="1.2"/>
	</g>
</g>
<g transform="translate(-42.52539550000001 121.06933333333332) scale(1)">
	<path class="st2" d="M166.2-34.7c-1.7-1.9-2.6-4.4-2.6-7.4c0-3,0.9-5.5,2.6-7.4c1.7-1.9,3.9-2.9,6.6-2.9s4.9,1,6.6,2.9
		c1.7,1.9,2.6,4.4,2.6,7.4c0,3-0.9,5.5-2.6,7.4s-3.9,2.9-6.6,2.9S167.9-32.8,166.2-34.7z M186.8-28.6c3.7-3.7,5.6-8.2,5.6-13.6
		s-1.9-9.9-5.6-13.6c-3.7-3.7-8.4-5.5-14-5.5s-10.3,1.8-14,5.5c-3.7,3.7-5.6,8.2-5.6,13.6s1.9,9.9,5.6,13.6s8.4,5.5,14,5.5
		S183.1-24.9,186.8-28.6z M198.1-39.7h24.5v-9.2h-24.5V-39.7z M250-51.6h2l-0.1-9.7c-2.1,0-4.1,0.6-6.1,1.7s-3.7,2.3-5,3.9v-4.9
		h-10.3v37h10.3v-16c0-3.6,0.8-6.5,2.3-8.6S247-51.6,250-51.6z M288.7-23.6v-23.6c0-4.9-1.4-8.4-4.3-10.7c-2.8-2.2-6.5-3.4-11-3.4
		c-6.2,0-11.8,1.8-16.7,5.3l4.6,6.7c1.4-1.1,3.1-1.9,5.1-2.7s3.9-1.1,5.7-1.1c4.2,0,6.3,2,6.3,5.9v0.2h-7.7c-4.8,0-8.5,0.9-11.3,2.8
		c-2.8,1.9-4.1,4.7-4.1,8.5s1.3,6.8,4,9.1c2.7,2.3,6,3.4,9.9,3.4s7.2-1.7,9.9-5v4.5H288.7z M278.3-37.7c0,1.9-0.7,3.4-2.1,4.5
		s-3,1.7-4.9,1.7c-1.8,0-3.2-0.4-4.2-1.1c-1-0.7-1.5-1.7-1.5-3.1c0-2.6,2.1-3.9,6.2-3.9h6.5V-37.7z M306.9-44.3
		c0-2.9,0.8-5.1,2.3-6.6s3.3-2.2,5.4-2.2c4.2,0,6.3,2.8,6.3,8.5v20.9h10.3v-22.5c0-4.6-1.3-8.3-4-11c-2.6-2.8-5.9-4.1-9.8-4.1
		c-3.9,0-7.4,1.6-10.5,4.8v-4.1h-10.3v37h10.3V-44.3z M362.4-49.9c1.7,1.7,2.5,4,2.5,7s-0.8,5.3-2.5,7.1s-3.7,2.7-6.2,2.7
		c-2.5,0-4.6-0.9-6.3-2.7c-1.7-1.8-2.6-4.2-2.6-7.1c0-2.9,0.9-5.3,2.7-7s3.9-2.5,6.3-2.5S360.8-51.6,362.4-49.9z M366.4-29.9
		c0,4.1-1.1,7.1-3.3,9s-5.2,2.8-9,2.8c-3.8,0-7.4-1.3-10.8-3.9l-4,7.8c2.2,1.7,4.7,2.9,7.5,3.8c2.9,0.9,5.7,1.3,8.4,1.3
		c5.2,0,9.7-1.5,13.5-4.5c1.9-1.5,3.5-3.5,4.6-6.1c1.1-2.6,1.7-5.5,1.7-8.8v-32.3h-10.3v4.9c-2.9-3.6-6.5-5.4-10.9-5.4
		s-8.3,1.8-11.7,5.3c-3.4,3.5-5.1,8-5.1,13.5s1.7,9.9,5,13.2s7.4,4.9,12.3,4.9S363.1-26.2,366.4-29.9z M394.1-34.7
		c-1.7-1.9-2.6-4.4-2.6-7.4c0-3,0.9-5.5,2.6-7.4c1.7-1.9,3.9-2.9,6.6-2.9c2.7,0,4.9,1,6.6,2.9c1.7,1.9,2.6,4.4,2.6,7.4
		c0,3-0.9,5.5-2.6,7.4c-1.7,1.9-3.9,2.9-6.6,2.9C398-31.9,395.8-32.8,394.1-34.7z M414.7-28.6c3.7-3.7,5.6-8.2,5.6-13.6
		s-1.9-9.9-5.6-13.6c-3.7-3.7-8.4-5.5-14-5.5s-10.3,1.8-14,5.5c-3.7,3.7-5.6,8.2-5.6,13.6s1.9,9.9,5.6,13.6s8.4,5.5,14,5.5
		S411-24.9,414.7-28.6z"/>
</g>
</svg>
